<svg width="24" height="24" viewBox="0 0 24 24" fill="none" xmlns="http://www.w3.org/2000/svg">
<path d="M12 24C18.6274 24 24 18.6274 24 12C24 5.37258 18.6274 0 12 0C5.37258 0 0 5.37258 0 12C0 18.6274 5.37258 24 12 24Z" fill="#ED0C0C"/>
<path d="M16.7946 15.6696L13.3017 12.1768L16.6768 8.80175C16.8259 8.65257 16.9077 8.44816 16.904 8.2335C16.9003 8.01884 16.8115 7.8115 16.6571 7.65711C16.5027 7.50272 16.2954 7.41391 16.0807 7.41023C15.8661 7.40655 15.6617 7.48829 15.5125 7.63747L12.1375 11.0125L8.64464 7.51964C8.49025 7.36525 8.28291 7.27644 8.06825 7.27276C7.85359 7.26908 7.64918 7.35082 7.5 7.5C7.35081 7.64919 7.26907 7.85359 7.27276 8.06825C7.27644 8.28291 7.36524 8.49025 7.51964 8.64464L11.0125 12.1375L7.63747 15.5125C7.48829 15.6617 7.40654 15.8661 7.41023 16.0807C7.41391 16.2954 7.50272 16.5027 7.65711 16.6571C7.8115 16.8115 8.01883 16.9003 8.2335 16.904C8.44816 16.9077 8.65256 16.8259 8.80175 16.6768L12.1767 13.3018L15.6696 16.7946C15.824 16.949 16.0313 17.0378 16.246 17.0415C16.4606 17.0452 16.665 16.9634 16.8142 16.8142C16.9634 16.665 17.0451 16.4606 17.0415 16.246C17.0378 16.0313 16.949 15.824 16.7946 15.6696Z" fill="white" stroke="white" stroke-width="1.3"/>
</svg>
