<svg width="36" height="36" viewBox="0 0 36 36" fill="none" xmlns="http://www.w3.org/2000/svg">
<path d="M27.6584 28.424C27.3244 30.1773 25.7915 31.4459 24.0067 31.4459H11.9702C10.1853 31.4459 8.65237 30.1773 8.3184 28.424L5.60364 14.1715L17.8877 5.08753L30.3737 14.1684L27.6584 28.424Z" fill="#FFC200"/>
<path opacity="0.5" fill-rule="evenodd" clip-rule="evenodd" d="M14.8003 26C14.8003 25.3372 15.3375 24.7999 16.0002 24.7999H20.8003C21.463 24.7999 22.0003 25.3372 22.0003 26C22.0003 26.6627 21.463 27.2 20.8003 27.2H16.0002C15.3375 27.2 14.8003 26.6627 14.8003 26Z" fill="#945151"/>
<path d="M21.9133 18.3373C21.9133 20.4984 20.1614 22.2502 18.0003 22.2502C15.8391 22.2502 14.0873 20.4984 14.0873 18.3373C14.0873 16.1762 15.8391 14.4242 18.0003 14.4242C20.1614 14.4242 21.9133 16.1762 21.9133 18.3373Z" fill="#945151"/>
<path d="M18.1896 3.2002C18.7235 3.1976 19.2638 3.35913 19.7282 3.69628L33.6887 13.7609C34.8504 14.605 35.1079 16.2309 34.264 17.3926C33.4201 18.554 31.7948 18.8117 30.6331 17.9684L18.1803 8.99083L5.72865 17.9676L5.72767 17.9684C4.56604 18.8115 2.94075 18.5538 2.09696 17.3924C1.25294 16.2307 1.51046 14.6048 2.67216 13.7608L2.67395 13.7594L16.6319 3.69671C17.1017 3.35566 17.6498 3.19375 18.1896 3.2002Z" fill="#ED0C0C"/>
</svg>
