<svg width="48" height="48" viewBox="0 0 48 48" fill="none" xmlns="http://www.w3.org/2000/svg">
<path fill-rule="evenodd" clip-rule="evenodd" d="M27.0251 7.55232C26.7602 5.01101 23.4159 4.13675 21.8841 6.20837L9.27672 23.2588C8.11072 24.8357 8.92361 27.0633 10.8487 27.5666L18.0206 29.4414L19.0801 39.6055C19.345 42.1468 22.6892 43.0211 24.221 40.9494L36.8285 23.899C37.9945 22.3221 37.1816 20.0945 35.2565 19.5913L28.0845 17.7164L27.0251 7.55232Z" fill="#FFC200"/>
<path d="M10.9537 25.4842C10.2936 25.305 10.2298 24.3883 10.8588 24.1184L15.9042 21.9535C16.3597 21.758 16.871 22.0725 16.9055 22.5693L17.156 26.1719C17.1906 26.6687 16.7278 27.0517 16.2496 26.9219L10.9537 25.4842Z" fill="#FF9600"/>
<path d="M35.1515 21.6738C35.8116 21.853 35.8754 22.7697 35.2465 23.0395L30.2011 25.2044C29.7454 25.3999 29.2342 25.0854 29.1997 24.5886L28.9492 20.986C28.9146 20.4892 29.3773 20.1062 29.8555 20.236L35.1515 21.6738Z" fill="white" fill-opacity="0.5"/>
</svg>
