<svg width="36" height="36" viewBox="0 0 36 36" fill="none" xmlns="http://www.w3.org/2000/svg">
<path fill-rule="evenodd" clip-rule="evenodd" d="M18.1429 3.91457C11.2274 3.91457 5.62117 9.52075 5.62117 16.4363V17.1685C3.30196 18.321 1.70813 20.7142 1.70813 23.4798C1.70813 27.3698 4.8616 30.5233 8.75159 30.5233H27.5342C31.4242 30.5233 34.5777 27.3698 34.5777 23.4798C34.5777 20.7142 32.9839 18.321 30.6646 17.1685V16.4363C30.6646 9.52075 25.0585 3.91457 18.1429 3.91457Z" fill="#AB2EFF"/>
<path d="M8.75159 16.4363C8.75159 11.2496 12.9562 7.04501 18.1429 7.04501C23.3296 7.04501 27.5342 11.2496 27.5342 16.4363V22.6972C27.5342 27.8839 23.3296 32.0885 18.1429 32.0885C12.9562 32.0885 8.75159 27.8839 8.75159 22.6972V16.4363Z" fill="#FAD59E"/>
<path d="M5.62122 19.1755C5.62122 17.2305 7.19795 15.6537 9.14294 15.6537H27.1429C29.088 15.6537 30.6647 17.2305 30.6647 19.1755C30.6647 21.1204 29.088 22.6972 27.1429 22.6972H9.14294C7.19795 22.6972 5.62122 21.1204 5.62122 19.1755Z" fill="#FAD59E"/>
<path d="M14.2299 16.045C14.2299 15.3966 14.7555 14.8711 15.4038 14.8711C16.0521 14.8711 16.5777 15.3966 16.5777 16.045V19.1755C16.5777 19.8238 16.0521 20.3494 15.4038 20.3494C14.7555 20.3494 14.2299 19.8238 14.2299 19.1755V16.045Z" fill="#B66E28"/>
<path d="M18.9255 16.045C18.9255 15.3966 19.4511 14.8711 20.0995 14.8711C20.7478 14.8711 21.2734 15.3966 21.2734 16.045V19.1755C21.2734 19.8238 20.7478 20.3494 20.0995 20.3494C19.4511 20.3494 18.9255 19.8238 18.9255 19.1755V16.045Z" fill="#B66E28"/>
<path d="M13.4473 22.7305C13.4473 22.2799 13.8126 21.9146 14.2632 21.9146H21.2401C21.6907 21.9146 22.056 22.2799 22.056 22.7305V23.0885C22.056 25.4657 20.1289 27.3929 17.7516 27.3929C15.3744 27.3929 13.4473 25.4657 13.4473 23.0885V22.7305Z" fill="white"/>
<path d="M5.62122 16.4396V16.4363C5.62122 9.52075 11.2274 3.91457 18.1429 3.91457C20.3634 3.91457 22.4489 4.49256 24.2572 5.50628C23.269 12.1304 17.4042 17.219 10.3169 17.219C8.6704 17.219 7.08991 16.9443 5.62122 16.4396Z" fill="#AB2EFF"/>
</svg>
