<svg width="36" height="36" viewBox="0 0 36 36" fill="none" xmlns="http://www.w3.org/2000/svg">
<path d="M14.4155 19.6176L21.1932 15.7045" stroke="#AFAFAF" stroke-width="2.08696"/>
<path d="M23.4846 7.15212C22.5121 5.46769 20.3582 4.89057 18.6738 5.86307C16.9894 6.83557 16.4123 8.98943 17.3848 10.6739L24.0369 22.1958C25.0094 23.8802 27.1633 24.4573 28.8477 23.4848C30.5322 22.5123 31.1093 20.3584 30.1368 18.674L23.4846 7.15212Z" fill="#0096D6"/>
<path d="M11.9632 13.8043C10.9907 12.1199 8.83688 11.5427 7.15245 12.5152C5.46803 13.4877 4.89091 15.6416 5.86341 17.326L12.5156 28.8479C13.4881 30.5324 15.6419 31.1095 17.3264 30.137C19.0108 29.1645 19.5879 27.0106 18.6154 25.3262L11.9632 13.8043Z" fill="#0096D6"/>
<path d="M29.7944 7.12403C28.8219 5.43961 26.6681 4.86248 24.9836 5.83498C23.2992 6.80748 22.7221 8.96135 23.6946 10.6458L27.2163 16.7456C28.1888 18.43 30.3427 19.0071 32.0271 18.0346C33.7115 17.0621 34.2887 14.9083 33.3162 13.2239L29.7944 7.12403Z" fill="#0096D6"/>
<path d="M8.78392 19.2545C7.81142 17.57 5.65756 16.9929 3.97313 17.9654C2.28871 18.9379 1.71159 21.0918 2.68409 22.7762L6.20583 28.876C7.17833 30.5604 9.33219 31.1376 11.0166 30.1651C12.701 29.1926 13.2782 27.0387 12.3057 25.3543L8.78392 19.2545Z" fill="#0096D6"/>
<path opacity="0.3" d="M6.67394 20.3516C6.34978 19.7901 5.63182 19.5978 5.07035 19.9219C4.50888 20.2461 4.3165 20.9641 4.64067 21.5255L5.42328 22.881C5.74744 23.4425 6.4654 23.6349 7.02687 23.3107C7.58834 22.9866 7.78072 22.2686 7.45655 21.7071L6.67394 20.3516Z" fill="white"/>
<path opacity="0.3" d="M28.5869 8.61248C28.2627 8.05101 27.5448 7.85863 26.9833 8.1828C26.4218 8.50697 26.2295 9.22492 26.5536 9.78639L27.3362 11.1419C27.6604 11.7034 28.3784 11.8958 28.9398 11.5716C29.5013 11.2474 29.6937 10.5295 29.3695 9.968L28.5869 8.61248Z" fill="white"/>
<path opacity="0.3" d="M9.80432 14.8733C9.48015 14.3119 8.76219 14.1195 8.20072 14.4437C7.63925 14.7678 7.44687 15.4858 7.77104 16.0473L8.94495 18.0805C9.26912 18.642 9.98707 18.8344 10.5485 18.5102C11.11 18.1861 11.3024 17.4681 10.9782 16.9066L9.80432 14.8733Z" fill="white"/>
<path opacity="0.3" d="M21.5435 8.61248C21.2193 8.05101 20.5013 7.85863 19.9399 8.1828C19.3784 8.50697 19.186 9.22492 19.5102 9.78639L20.6841 11.8197C21.0083 12.3811 21.7262 12.5735 22.2877 12.2494C22.8492 11.9252 23.0415 11.2072 22.7174 10.6458L21.5435 8.61248Z" fill="white"/>
</svg>
